<svg width="50" height="50" viewBox="0 0 50 50" fill="none" xmlns="http://www.w3.org/2000/svg">
<path d="M27.48 27.4876C24.0959 30.968 3.58269 47.023 3.58269 47.023C3.58269 47.023 19.1939 25.9266 22.578 22.4462C25.9621 18.9659 46.4753 2.9108 46.4753 2.9108C46.4753 2.9108 30.8642 24.0073 27.48 27.4876Z" fill="#F2E1CA"/>
<path d="M33.9153 33.4579C31.3772 36.0682 15.9923 48.1095 15.9923 48.1095C15.9923 48.1095 27.7006 32.2871 30.2387 29.6769C32.7768 27.0666 48.1617 15.0253 48.1617 15.0253C48.1617 15.0253 36.4534 30.8476 33.9153 33.4579Z" fill="#F2E1CA"/>
<path d="M19.7613 20.3231C17.2232 22.9334 1.83826 34.9747 1.83826 34.9747C1.83826 34.9747 13.5466 19.1524 16.0847 16.5421C18.6228 13.9318 34.0077 1.89052 34.0077 1.89052C34.0077 1.89052 22.2994 17.7129 19.7613 20.3231Z" fill="#F2E1CA"/>
</svg>
